<svg width="32" height="32" viewBox="0 0 32 32" fill="none" xmlns="http://www.w3.org/2000/svg">
<path fill-rule="evenodd" clip-rule="evenodd" d="M5.65234 13.8553C5.67155 8.20119 10.2707 3.63319 15.9248 3.6524C21.5789 3.67161 26.1469 8.27075 26.1277 13.9249V14.0408C26.0581 17.7162 24.006 21.1133 21.49 23.7683C20.0512 25.2625 18.4444 26.5853 16.7016 27.7104C16.2356 28.1135 15.5444 28.1135 15.0784 27.7104C12.4804 26.0194 10.2003 23.8844 8.3422 21.4031C6.68614 19.2394 5.7459 16.6132 5.65234 13.8901L5.65234 13.8553Z" stroke="white" stroke-width="2.5" stroke-linecap="round" stroke-linejoin="round"/>
<path fill-rule="evenodd" clip-rule="evenodd" d="M15.8905 17.3338C17.7027 17.3338 19.1717 15.8648 19.1717 14.0526C19.1717 12.2405 17.7027 10.7715 15.8905 10.7715C14.0784 10.7715 12.6094 12.2405 12.6094 14.0526C12.6094 15.8648 14.0784 17.3338 15.8905 17.3338Z" stroke="white" stroke-width="2.5" stroke-linecap="round" stroke-linejoin="round"/>
</svg>
